<?xml version="1.0" encoding="utf-8"?>
<!-- Generator: Adobe Illustrator 21.0.0, SVG Export Plug-In . SVG Version: 6.00 Build 0)  -->
<svg version="1.1" id="Layer_1" xmlns="http://www.w3.org/2000/svg" xmlns:xlink="http://www.w3.org/1999/xlink" x="0px" y="0px"
	 viewBox="0 0 24 24" style="enable-background:new 0 0 24 24;" xml:space="preserve">
<style type="text/css">
	.st0{display:none;fill:none;}
	.st1{fill:#1180C1;}
	.st2{fill:none;stroke:#1180C1;stroke-width:0.9;stroke-miterlimit:10;}
	.st3{fill:#1180C1;stroke:#1180C1;stroke-width:0.25;stroke-miterlimit:10;}
</style>
<rect class="st0" width="24" height="24"/>
<g>
	<path class="st1" d="M20.4,10.7c-0.3-0.6,0-1.4,0.6-1.7c0.6-0.3,1.3,0,1.6,0.6s0,1.4-0.6,1.7C21.4,11.6,20.6,11.3,20.4,10.7z"/>
	<path class="st1" d="M19,9.4c0.4,0.4,0.8,0.8,1.1,1.5c0.3,0.6,0.4,1.2,0.4,1.8c0,0.5-0.3,0.9-0.7,1.1L19.1,14l-2-4.6l0.6-0.3
		C18.2,9,18.7,9.1,19,9.4z"/>
</g>
<g>
	<path class="st1" d="M18.3,20c0.5-0.5,1.3-0.5,1.7,0s0.5,1.3,0,1.8c-0.5,0.5-1.3,0.5-1.7,0S17.8,20.5,18.3,20z"/>
	<path class="st1" d="M19.1,18.2c-0.2,0.5-0.5,1-1,1.5c-0.5,0.5-1,0.8-1.5,1c-0.5,0.2-1,0-1.3-0.3l-0.5-0.5l3.5-3.5l0.5,0.5
		C19.1,17.3,19.2,17.8,19.1,18.2z"/>
</g>
<g>
	<path class="st1" d="M5.6,20.2c-0.5-0.5-1.3-0.4-1.7,0.1c-0.4,0.5-0.4,1.3,0.1,1.8c0.5,0.5,1.3,0.4,1.7-0.1S6.2,20.7,5.6,20.2z"/>
	<path class="st1" d="M4.8,18.5C5,19,5.3,19.5,5.8,20s1.1,0.7,1.6,0.9c0.5,0.1,1,0,1.3-0.4l0.4-0.5l-3.7-3.3L5,17.2
		C4.6,17.6,4.6,18.1,4.8,18.5z"/>
</g>
<g>
	<ellipse transform="matrix(4.852851e-03 -1 1 4.852851e-03 9.0376 15.0203)" class="st1" cx="12.1" cy="3" rx="1.3" ry="1.2"/>
	<path class="st1" d="M13.8,4.9c-0.5-0.2-1.1-0.4-1.7-0.4c-0.7,0-1.3,0.2-1.7,0.4C9.9,5.1,9.6,5.5,9.6,6l0,0.7l4.9,0l0-0.7
		C14.5,5.6,14.2,5.1,13.8,4.9z"/>
</g>
<ellipse class="st2" cx="12" cy="13.4" rx="2.9" ry="3"/>
<rect x="11.7" y="6.7" class="st3" width="0.6" height="3.4"/>
<polygon class="st3" points="15.3,13.2 15.1,12.6 18.1,11.4 18.4,12 "/>
<g>
	<path class="st1" d="M3.7,10.6C4,10,3.7,9.2,3.1,9c-0.6-0.3-1.3,0-1.6,0.6c-0.3,0.6,0,1.4,0.6,1.7S3.4,11.2,3.7,10.6z"/>
	<path class="st1" d="M5.1,9.3C4.7,9.6,4.3,10.1,4,10.7S3.6,12,3.6,12.5c0,0.5,0.3,0.9,0.7,1.1L5,13.9l2-4.6L6.4,9.1
		C5.9,8.9,5.4,8.9,5.1,9.3z"/>
</g>
<polygon class="st3" points="8.8,13.1 9,12.6 6,11.3 5.8,11.9 "/>
<polygon class="st3" points="10,16 9.6,15.5 7,18.3 7.5,18.7 "/>
<polygon class="st3" points="14.4,15.4 14,15.9 16.6,18.5 17,18.1 "/>
</svg>
