<?xml version="1.0" encoding="utf-8"?>
<!-- Generator: Adobe Illustrator 21.0.0, SVG Export Plug-In . SVG Version: 6.00 Build 0)  -->
<svg version="1.1" id="Layer_1" xmlns="http://www.w3.org/2000/svg" xmlns:xlink="http://www.w3.org/1999/xlink" x="0px" y="0px"
	 viewBox="0 0 24 24" style="enable-background:new 0 0 24 24;" xml:space="preserve">
<style type="text/css">
	.st0{display:none;fill:none;}
	.st1{fill:#1180C1;}
	.st2{fill:#6C757D;}
</style>
<path class="st0" d="M0,0h24v24H0V0z"/>
<path class="st1" d="M7.9,7.4H2.4c-1.2,0-2.2,1-2.2,2.2v10.6c0,1.2,1,2.2,2.2,2.2h5.5c1.2,0,2.2-1,2.2-2.2V9.5
	C10.1,8.3,9.1,7.4,7.9,7.4z M9,20.2c0,0.6-0.5,1.1-1.1,1.1H2.4c-0.6,0-1.1-0.5-1.1-1.1V9.5c0-0.6,0.5-1.1,1.1-1.1h5.5
	C8.5,8.4,9,8.9,9,9.5V20.2z"/>
<g>
	<path class="st2" d="M20.4,2.2H7.3C5.7,2.2,4.5,3.4,4.5,5v1.9H5V5c0-1.3,1-2.3,2.3-2.3h13.1c1.3,0,2.3,1,2.3,2.3v8.3
		c0,1.3-1,2.3-2.3,2.3h-9.8v0.5h9.8c1.6,0,2.8-1.3,2.8-2.8V5C23.2,3.4,22,2.2,20.4,2.2z"/>
	<path class="st1" d="M20.4,1.6H7.3C5.4,1.6,3.9,3.1,3.9,5v1.9H5V5c0-1.3,1-2.3,2.3-2.3h13.1c1.3,0,2.3,1,2.3,2.3v8.3
		c0,1.3-1,2.3-2.3,2.3h-9.8v1.1h9.8c1.8,0,3.3-1.5,3.3-3.4V5C23.8,3.1,22.3,1.6,20.4,1.6z"/>
</g>
<rect x="3.9" y="19.8" class="st1" width="2.1" height="0.8"/>
<rect x="13.9" y="14.1" class="st1" width="3.3" height="0.8"/>
</svg>
