<?xml version="1.0" encoding="utf-8"?>
<!-- Generator: Adobe Illustrator 21.0.0, SVG Export Plug-In . SVG Version: 6.00 Build 0)  -->
<svg version="1.1" id="Layer_1" xmlns="http://www.w3.org/2000/svg" xmlns:xlink="http://www.w3.org/1999/xlink" x="0px" y="0px"
	 viewBox="0 0 24 24" style="enable-background:new 0 0 24 24;" xml:space="preserve">
<style type="text/css">
	.st0{display:none;fill:none;}
	.st1{display:none;}
	.st2{display:inline;fill:none;}
	.st3{fill:#1180C1;stroke:#1180C1;stroke-width:0;stroke-miterlimit:10;}
	.st4{fill:#1180C1;}
	.st5{fill:none;stroke:#1180C1;stroke-width:1.2;stroke-miterlimit:10;}
</style>
<path class="st0" d="M0,0v24h24V0H0z M11.9,20.3H10v-2.6h1.8V20.3z"/>
<g class="st1">
	<circle class="st2" cx="9.7" cy="8" r="2"/>
	<path class="st2" d="M12.5,16v-0.6c-0.9-0.2-1.9-0.4-2.8-0.4c-2.7,0-5.8,1.3-6,2v1h5.7v-0.3H10v-0.1h1.8l1-1.7H12.5z"/>
	<path d="M9.7,12c2.2,0,4-1.8,4-4s-1.8-4-4-4c-2.2,0-4,1.8-4,4S7.5,12,9.7,12z M9.7,6c1.1,0,2,0.9,2,2s-0.9,2-2,2c-1.1,0-2-0.9-2-2
		S8.6,6,9.7,6z"/>
	<polygon points="18.9,20.2 17.7,14.4 15,12.3 14.1,13.8 13,15.5 11.6,18 10.4,20 10.3,20.2 	"/>
</g>
<path class="st3" d="M12.1,13.7v1.3c-0.9-0.2-1.7-0.3-2.4-0.3c-2.6,0-6.1,1.2-6.4,2.3l0,1.5H9v1.2H2V17c0-2.3,4.9-3.6,7.6-3.6
	C10.3,13.4,11.2,13.5,12.1,13.7z"/>
<path class="st4" d="M18.7,11.3l1.3,1.6l-2.9,3.4l-2.4-2.8l-4.4,5.2l0.8,0.8l3.5-4.2l2.4,2.8l3.7-4.4l1.3,1.6v-4.2H18.7z"/>
<circle class="st4" cx="11.3" cy="18.7" r="1.3"/>
<circle class="st4" cx="14.8" cy="14" r="1.3"/>
<circle class="st4" cx="17.2" cy="18.1" r="1.3"/>
<circle class="st5" cx="11.2" cy="7.6" r="3.8"/>
</svg>
